<svg width="480" height="480" viewBox="0 0 480 480" fill="none" xmlns="http://www.w3.org/2000/svg">
<g clip-path="url(#clip0_81_2)">
<path d="M92.08 197.708C103.547 191.631 114.211 184.407 124.072 176.036C134.048 167.665 142.935 158.721 150.732 149.204C158.529 139.572 164.951 129.825 169.996 119.964C175.156 110.103 178.653 100.643 180.488 91.584C180.603 91.1253 180.545 90.7813 180.316 90.552C180.087 90.208 179.743 90.036 179.284 90.036C176.991 90.036 174.239 90.2653 171.028 90.724C167.932 91.068 164.549 91.6413 160.88 92.444C157.211 93.132 153.484 93.8773 149.7 94.68C146.031 95.4827 142.476 96.3427 139.036 97.26C135.711 98.0627 132.672 98.8653 129.92 99.668C127.168 100.356 124.989 100.929 123.384 101.388C121.549 101.847 119.543 102.764 117.364 104.14C115.185 105.401 113.007 106.032 110.828 106.032C107.847 106.032 104.865 104.885 101.884 102.592C99.0173 100.184 96.4947 97.3747 94.316 94.164C92.1373 90.9533 90.7613 88.0867 90.188 85.564C89.6147 82.9267 89.328 80.6333 89.328 78.684C89.328 76.7347 89.3853 74.6707 89.5 72.492L91.564 71.632C94.4307 74.1547 97.1253 76.276 99.648 77.996C102.285 79.6013 105.209 80.404 108.42 80.404C111.057 80.404 114.211 80.3467 117.88 80.232C121.549 80.0027 125.448 79.716 129.576 79.372C133.819 79.028 138.061 78.6267 142.304 78.168C146.547 77.7093 150.56 77.2507 154.344 76.792C158.243 76.3333 161.683 75.8747 164.664 75.416C167.645 74.9573 169.939 74.556 171.544 74.212C174.411 73.524 176.475 72.836 177.736 72.148C179.112 71.46 180.316 70.8867 181.348 70.428C182.38 69.8547 183.813 69.568 185.648 69.568C188.056 69.568 190.923 70.5427 194.248 72.492C197.688 74.4413 201.013 76.9067 204.224 79.888C207.549 82.7547 210.301 85.6213 212.48 88.488C214.773 91.24 215.92 93.476 215.92 95.196C215.92 97.4893 215.289 99.3813 214.028 100.872C212.767 102.248 211.333 103.567 209.728 104.828C208.237 106.089 206.976 107.637 205.944 109.472C198.605 123.232 189.948 135.96 179.972 147.656C169.996 159.352 158.013 169.729 144.024 178.788C130.035 187.732 113.293 195.071 93.8 200.804L92.08 197.708ZM220.564 82.296C215.175 82.296 210.588 80.404 206.804 76.62C203.02 72.836 201.128 68.2493 201.128 62.86C201.128 57.4707 203.02 52.884 206.804 49.1C210.588 45.316 215.175 43.424 220.564 43.424C225.953 43.424 230.54 45.316 234.324 49.1C238.108 52.884 240 57.4707 240 62.86C240 68.2493 238.108 72.836 234.324 76.62C230.54 80.404 225.953 82.296 220.564 82.296ZM220.564 74.556C223.889 74.556 226.641 73.4093 228.82 71.116C231.113 68.8227 232.26 66.0707 232.26 62.86C232.26 59.5347 231.113 56.7827 228.82 54.604C226.641 52.3107 223.889 51.164 220.564 51.164C217.353 51.164 214.601 52.3107 212.308 54.604C210.015 56.7827 208.868 59.5347 208.868 62.86C208.868 66.0707 210.015 68.8227 212.308 71.116C214.601 73.4093 217.353 74.556 220.564 74.556ZM270.96 200.976C279.56 195.701 286.956 190.083 293.148 184.12C299.34 178.043 304.443 171.564 308.456 164.684C312.584 157.804 315.623 150.465 317.572 142.668C319.521 134.871 320.496 126.557 320.496 117.728C320.496 112.568 320.267 107.981 319.808 103.968C319.349 99.9547 318.489 96.572 317.228 93.82C316.081 90.9533 314.247 88.8893 311.724 87.628L328.924 83.156C333.052 84.188 336.607 85.564 339.588 87.284C342.569 89.004 344.805 90.724 346.296 92.444C347.901 94.0493 348.704 95.368 348.704 96.4C348.704 98.12 348.417 99.6107 347.844 100.872C347.271 102.019 346.697 103.567 346.124 105.516C345.551 107.351 345.207 110.217 345.092 114.116C344.748 129.252 341.881 142.668 336.492 154.364C331.103 165.945 323.076 175.807 312.412 183.948C301.748 192.089 288.389 198.625 272.336 203.556L270.96 200.976ZM273.368 137.336C271.189 137.336 268.839 136.533 266.316 134.928C263.793 133.323 261.5 131.373 259.436 129.08C257.372 126.672 255.881 124.493 254.964 122.544C253.703 119.333 252.957 115.148 252.728 109.988L254.964 109.128C258.06 112.109 260.64 114.059 262.704 114.976C264.883 115.779 267.233 116.18 269.756 116.18C272.852 116.18 276.579 116.008 280.936 115.664C285.408 115.32 290.052 114.861 294.868 114.288C299.799 113.715 304.557 113.141 309.144 112.568C313.731 111.88 317.801 111.307 321.356 110.848C324.911 110.389 327.605 110.045 329.44 109.816C334.6 109.243 339.015 108.784 342.684 108.44C346.353 107.981 349.621 107.58 352.488 107.236C355.355 106.892 357.992 106.548 360.4 106.204C364.069 105.631 366.993 105.057 369.172 104.484C371.351 103.911 373.013 103.395 374.16 102.936C375.307 102.477 376.109 102.248 376.568 102.248C380.696 102.248 384.595 102.879 388.264 104.14C392.048 105.287 395.087 106.949 397.38 109.128C399.788 111.192 400.992 113.543 400.992 116.18C400.992 119.62 400.189 121.971 398.584 123.232C396.979 124.379 395.029 124.952 392.736 124.952C390.443 124.952 386.888 124.551 382.072 123.748C377.256 122.945 372.268 122.544 367.108 122.544C363.668 122.544 360.515 122.601 357.648 122.716C354.781 122.716 351.972 122.831 349.22 123.06C346.468 123.175 343.716 123.347 340.964 123.576C338.212 123.691 335.288 123.92 332.192 124.264C328.752 124.608 324.853 125.124 320.496 125.812C316.139 126.5 311.781 127.303 307.424 128.22C303.067 129.023 299.111 129.883 295.556 130.8C292.001 131.717 289.307 132.52 287.472 133.208C285.064 134.125 282.771 135.043 280.592 135.96C278.528 136.877 276.12 137.336 273.368 137.336ZM266.66 88.832C273.54 86.9973 280.764 84.9333 288.332 82.64C296.015 80.3467 303.411 77.996 310.52 75.588C317.629 73.0653 323.764 70.7147 328.924 68.536C334.199 66.3573 337.753 64.4653 339.588 62.86C341.423 61.3693 342.283 59.936 342.168 58.56C342.053 57.184 340.563 55.12 337.696 52.368L339.244 50.476C345.092 50.9347 349.621 51.7947 352.832 53.056C356.157 54.2027 359.311 55.7507 362.292 57.7C365.044 59.5347 367.681 61.8853 370.204 64.752C372.727 67.6187 373.988 70.256 373.988 72.664C373.988 74.2693 373.243 75.3587 371.752 75.932C370.261 76.5053 368.484 76.9067 366.42 77.136C364.471 77.3653 362.693 77.7667 361.088 78.34C356.501 79.9453 352.373 81.3213 348.704 82.468C345.149 83.5 341.709 84.4173 338.384 85.22C335.059 85.908 331.389 86.6533 327.376 87.456C324.853 87.9147 320.496 88.6027 314.304 89.52C308.227 90.3227 301.117 91.068 292.976 91.756C284.835 92.3293 276.349 92.5013 267.52 92.272L266.66 88.832ZM92.08 444.708C103.547 438.631 114.211 431.407 124.072 423.036C134.048 414.665 142.935 405.721 150.732 396.204C158.529 386.572 164.951 376.825 169.996 366.964C175.156 357.103 178.653 347.643 180.488 338.584C180.603 338.125 180.545 337.781 180.316 337.552C180.087 337.208 179.743 337.036 179.284 337.036C176.991 337.036 174.239 337.265 171.028 337.724C167.932 338.068 164.549 338.641 160.88 339.444C157.211 340.132 153.484 340.877 149.7 341.68C146.031 342.483 142.476 343.343 139.036 344.26C135.711 345.063 132.672 345.865 129.92 346.668C127.168 347.356 124.989 347.929 123.384 348.388C121.549 348.847 119.543 349.764 117.364 351.14C115.185 352.401 113.007 353.032 110.828 353.032C107.847 353.032 104.865 351.885 101.884 349.592C99.0173 347.184 96.4947 344.375 94.316 341.164C92.1373 337.953 90.7613 335.087 90.188 332.564C89.6147 329.927 89.328 327.633 89.328 325.684C89.328 323.735 89.3853 321.671 89.5 319.492L91.564 318.632C94.4307 321.155 97.1253 323.276 99.648 324.996C102.285 326.601 105.209 327.404 108.42 327.404C111.057 327.404 114.211 327.347 117.88 327.232C121.549 327.003 125.448 326.716 129.576 326.372C133.819 326.028 138.061 325.627 142.304 325.168C146.547 324.709 150.56 324.251 154.344 323.792C158.243 323.333 161.683 322.875 164.664 322.416C167.645 321.957 169.939 321.556 171.544 321.212C174.411 320.524 176.475 319.836 177.736 319.148C179.112 318.46 180.316 317.887 181.348 317.428C182.38 316.855 183.813 316.568 185.648 316.568C188.056 316.568 190.923 317.543 194.248 319.492C197.688 321.441 201.013 323.907 204.224 326.888C207.549 329.755 210.301 332.621 212.48 335.488C214.773 338.24 215.92 340.476 215.92 342.196C215.92 344.489 215.289 346.381 214.028 347.872C212.767 349.248 211.333 350.567 209.728 351.828C208.237 353.089 206.976 354.637 205.944 356.472C198.605 370.232 189.948 382.96 179.972 394.656C169.996 406.352 158.013 416.729 144.024 425.788C130.035 434.732 113.293 442.071 93.8 447.804L92.08 444.708ZM220.564 329.296C215.175 329.296 210.588 327.404 206.804 323.62C203.02 319.836 201.128 315.249 201.128 309.86C201.128 304.471 203.02 299.884 206.804 296.1C210.588 292.316 215.175 290.424 220.564 290.424C225.953 290.424 230.54 292.316 234.324 296.1C238.108 299.884 240 304.471 240 309.86C240 315.249 238.108 319.836 234.324 323.62C230.54 327.404 225.953 329.296 220.564 329.296ZM220.564 321.556C223.889 321.556 226.641 320.409 228.82 318.116C231.113 315.823 232.26 313.071 232.26 309.86C232.26 306.535 231.113 303.783 228.82 301.604C226.641 299.311 223.889 298.164 220.564 298.164C217.353 298.164 214.601 299.311 212.308 301.604C210.015 303.783 208.868 306.535 208.868 309.86C208.868 313.071 210.015 315.823 212.308 318.116C214.601 320.409 217.353 321.556 220.564 321.556ZM270.96 447.976C279.56 442.701 286.956 437.083 293.148 431.12C299.34 425.043 304.443 418.564 308.456 411.684C312.584 404.804 315.623 397.465 317.572 389.668C319.521 381.871 320.496 373.557 320.496 364.728C320.496 359.568 320.267 354.981 319.808 350.968C319.349 346.955 318.489 343.572 317.228 340.82C316.081 337.953 314.247 335.889 311.724 334.628L328.924 330.156C333.052 331.188 336.607 332.564 339.588 334.284C342.569 336.004 344.805 337.724 346.296 339.444C347.901 341.049 348.704 342.368 348.704 343.4C348.704 345.12 348.417 346.611 347.844 347.872C347.271 349.019 346.697 350.567 346.124 352.516C345.551 354.351 345.207 357.217 345.092 361.116C344.748 376.252 341.881 389.668 336.492 401.364C331.103 412.945 323.076 422.807 312.412 430.948C301.748 439.089 288.389 445.625 272.336 450.556L270.96 447.976ZM273.368 384.336C271.189 384.336 268.839 383.533 266.316 381.928C263.793 380.323 261.5 378.373 259.436 376.08C257.372 373.672 255.881 371.493 254.964 369.544C253.703 366.333 252.957 362.148 252.728 356.988L254.964 356.128C258.06 359.109 260.64 361.059 262.704 361.976C264.883 362.779 267.233 363.18 269.756 363.18C272.852 363.18 276.579 363.008 280.936 362.664C285.408 362.32 290.052 361.861 294.868 361.288C299.799 360.715 304.557 360.141 309.144 359.568C313.731 358.88 317.801 358.307 321.356 357.848C324.911 357.389 327.605 357.045 329.44 356.816C334.6 356.243 339.015 355.784 342.684 355.44C346.353 354.981 349.621 354.58 352.488 354.236C355.355 353.892 357.992 353.548 360.4 353.204C364.069 352.631 366.993 352.057 369.172 351.484C371.351 350.911 373.013 350.395 374.16 349.936C375.307 349.477 376.109 349.248 376.568 349.248C380.696 349.248 384.595 349.879 388.264 351.14C392.048 352.287 395.087 353.949 397.38 356.128C399.788 358.192 400.992 360.543 400.992 363.18C400.992 366.62 400.189 368.971 398.584 370.232C396.979 371.379 395.029 371.952 392.736 371.952C390.443 371.952 386.888 371.551 382.072 370.748C377.256 369.945 372.268 369.544 367.108 369.544C363.668 369.544 360.515 369.601 357.648 369.716C354.781 369.716 351.972 369.831 349.22 370.06C346.468 370.175 343.716 370.347 340.964 370.576C338.212 370.691 335.288 370.92 332.192 371.264C328.752 371.608 324.853 372.124 320.496 372.812C316.139 373.5 311.781 374.303 307.424 375.22C303.067 376.023 299.111 376.883 295.556 377.8C292.001 378.717 289.307 379.52 287.472 380.208C285.064 381.125 282.771 382.043 280.592 382.96C278.528 383.877 276.12 384.336 273.368 384.336ZM266.66 335.832C273.54 333.997 280.764 331.933 288.332 329.64C296.015 327.347 303.411 324.996 310.52 322.588C317.629 320.065 323.764 317.715 328.924 315.536C334.199 313.357 337.753 311.465 339.588 309.86C341.423 308.369 342.283 306.936 342.168 305.56C342.053 304.184 340.563 302.12 337.696 299.368L339.244 297.476C345.092 297.935 349.621 298.795 352.832 300.056C356.157 301.203 359.311 302.751 362.292 304.7C365.044 306.535 367.681 308.885 370.204 311.752C372.727 314.619 373.988 317.256 373.988 319.664C373.988 321.269 373.243 322.359 371.752 322.932C370.261 323.505 368.484 323.907 366.42 324.136C364.471 324.365 362.693 324.767 361.088 325.34C356.501 326.945 352.373 328.321 348.704 329.468C345.149 330.5 341.709 331.417 338.384 332.22C335.059 332.908 331.389 333.653 327.376 334.456C324.853 334.915 320.496 335.603 314.304 336.52C308.227 337.323 301.117 338.068 292.976 338.756C284.835 339.329 276.349 339.501 267.52 339.272L266.66 335.832Z" fill="#C31C56"/>
</g>
<defs>
<clipPath id="clip0_81_2">
<rect width="480" height="480" fill="white"/>
</clipPath>
</defs>
</svg>
